{"title":"Milk (2008) Sean Penn (Nordic DVDrip, opt. subs DK,FI,No,Se)","uid":4945642,"size":756288142,"categoryP":"video","categoryS":"movies","magnet":"?xt=urn:btih:2269edcebb2e1a01f3864a16069bfcb3e0b8cb7e&amp;dn=Milk+%282008%29+Sean+Penn+%28Nordic+DVDrip%2C+opt.+subs+DK%2CFI%2CNo%2CSe%29&amp;tr=udp%3A%2F%2Ftracker.openbittorrent.com%3A80&amp;tr=udp%3A%2F%2Fopen.demonii.com%3A1337&amp;tr=udp%3A%2F%2Ftracker.coppersurfer.tk%3A6969&amp;tr=udp%3A%2F%2Fexodus.desync.com%3A6969","seeders":1,"leechers":2,"uploader":"Kuthumi","files":-1,"time":1244647619,"description":"Milk (2008) Sean Penn (Nordic DVDrip, opt. subs DK,FI,No,Se) &lt;a href=&quot;\nhttp://www.imdb.com/title/tt1013753/&quot; rel=&quot;nofollow&quot; target=&quot;_NEW&quot;&gt;\nhttp://www.imdb.com/title/tt1013753/&lt;/a&gt;\n\nOptional subtitles in separate idx/sub files (Work in Windows Media Player etc., see enclosed Note): Danish, Finnish, Norwegian, Swedish. \n\nSean Penn's astounding Oscar-performance as a gay activist.\n\nWidescreen DVDrip XviD 2-pass 704x368, great stereo sound AC3.\nRuns well in both my standalone DivX players.\n\nMy ripping procedure now produces decent quality for such a long film compressed into just 700 MiB. I enclose a sample for ye weak in faith. \n\nMediaInfo analysis:\nFormat/Info                      : Audio Video Interleave\nFile size                        : 695 MiB\nDuration                         : 2h 2mn\nOveral bit rate                  : 790 Kbps\n\nVideo\nFormat                           : MPEG-4 Visual\nFormat profile                   : Streaming Video@L1\nFormat settings, BVOP            : Yes\nFormat settings, QPel            : No\nFormat settings, GMC             : No warppoints\nFormat settings, Matrix          : Default\nMuxing mode                      : Packet Bitstream\nCodec ID                         : XVID\nCodec ID/Hint                    : XviD\nDuration                         : 2h 2mn\nBit rate                         : 652 Kbps\nWidth                            : 704 pixels\nHeight                           : 368 pixels\nDisplay aspect ratio             : 1.913\nFrame rate                       : 25.000 fps\nResolution                       : 8 bits\nColorimetry                      : 4:2:0\nScan type                        : Progressive\nBits/(Pixel*Frame)               : 0.101\nStream size                      : 573 MiB\nWriting library                  : XviD 1.2.0.dev47 (UTC 2006-11-01)\n\nAudio\nFormat                           : MPEG Audio\nFormat version                   : Version 1\nFormat profile                   : Layer 3\nCodec ID                         : 55\nCodec ID/Hint                    : MP3\nDuration                         : 2h 2mn\nBit rate mode                    : Constant\nBit rate                         : 128 Kbps\nMinimum bit rate                 : 128 Kbps\nChannel(s)                       : 2 channels\nSampling rate                    : 48.0 KHz\nResolution                       : 16 bits\nStream size                      : 113 MiB\nWriting library                  : LAME3.97 \nEncoding settings                : CBR\n\nThanks to user mskbt1 for uploading the DVD.\n\nSource: PAL native (note that PAL/NTSC will give no problems for avi files).","torrent":{"xt":"urn:btih:2269edcebb2e1a01f3864a16069bfcb3e0b8cb7e","amp;dn":"Milk+%282008%29+Sean+Penn+%28Nordic+DVDrip%2C+opt.+subs+DK%2CFI%2CNo%2CSe%29","amp;tr":["udp%3A%2F%2Ftracker.openbittorrent.com%3A80","udp%3A%2F%2Fopen.demonii.com%3A1337","udp%3A%2F%2Ftracker.coppersurfer.tk%3A6969","udp%3A%2F%2Fexodus.desync.com%3A6969"],"infoHash":"2269edcebb2e1a01f3864a16069bfcb3e0b8cb7e","infoHashBuffer":{"type":"Buffer","data":[34,105,237,206,187,46,26,1,243,134,74,22,6,155,252,179,224,184,203,126]},"announce":[],"urlList":[]}}